<!DOCTYPE svg PUBLIC "-//W3C//DTD SVG 1.1//EN" "http://www.w3.org/Graphics/SVG/1.1/DTD/svg11.dtd">
<!-- Uploaded to: SVG Repo, www.svgrepo.com, Transformed by: SVG Repo Mixer Tools -->
<svg width="256px" height="256px" viewBox="-2.4 -2.4 28.80 28.80" fill="none" xmlns="http://www.w3.org/2000/svg" stroke="#fcff3d" stroke-width="0.12000000000000002" transform="matrix(1, 0, 0, 1, 0, 0)rotate(0)">
<g id="SVGRepo_bgCarrier" stroke-width="0" transform="translate(0,0), scale(1)">
<path transform="translate(-2.4, -2.4), scale(1.7999999999999998)" fill="#9e57fa" d="M9.166.33a2.25 2.25 0 00-2.332 0l-5.25 3.182A2.25 2.25 0 00.5 5.436v5.128a2.25 2.25 0 001.084 1.924l5.25 3.182a2.25 2.25 0 002.332 0l5.25-3.182a2.25 2.25 0 001.084-1.924V5.436a2.25 2.25 0 00-1.084-1.924L9.166.33z" strokewidth="0"/>
</g>
<g id="SVGRepo_tracerCarrier" stroke-linecap="round" stroke-linejoin="round" stroke="#CCCCCC" stroke-width="0.048"/>
<g id="SVGRepo_iconCarrier">
<path fill-rule="evenodd" clip-rule="evenodd" d="M16.5 7.063C16.5 10.258 14.57 13 12 13c-2.572 0-4.5-2.742-4.5-5.938C7.5 3.868 9.16 2 12 2s4.5 1.867 4.5 5.063zM4.102 20.142C4.487 20.6 6.145 22 12 22c5.855 0 7.512-1.4 7.898-1.857a.416.416 0 0 0 .09-.317C19.9 18.944 19.106 15 12 15s-7.9 3.944-7.989 4.826a.416.416 0 0 0 .091.317z" fill="#f8fb56"/>
</g>
</svg>